<svg width="47" height="43" viewBox="0 0 47 43" fill="none" xmlns="http://www.w3.org/2000/svg">
<path d="M0 25.7899C0 30.224 0 34.6582 0 39.0923C0.0367699 39.1882 0.0735397 39.2841 0.098053 39.3799C0.563824 41.3094 2.09596 42.5198 4.11837 42.5198C4.78025 42.5198 5.42988 42.5198 6.09176 42.5198C7.15813 42.5318 8.08966 42.1722 8.78832 41.3933C9.16829 40.9858 9.51148 40.8779 10.0018 41.0817C10.0631 41.1056 10.1243 41.1176 10.1734 41.1296C12.5022 41.621 14.8065 42.2561 17.1599 42.5557C21.6705 43.1429 26.2179 43.107 30.753 42.6876C34.2095 42.364 37.1757 40.9738 39.4432 38.3733C41.7353 35.7727 43.9784 33.1362 46.1479 30.4517C47.9619 28.2107 46.7239 24.8192 43.9048 24.0881C43.7455 24.0522 43.5984 24.0043 43.4268 23.9563C43.4268 23.7286 43.4268 23.5249 43.4268 23.3331C43.4268 16.0827 43.4268 8.83232 43.4268 1.58191C43.4268 0.527303 42.8997 0 41.8334 0C29.6253 0 17.4296 0 5.22151 0C4.20417 0 3.6526 0.527303 3.6526 1.52199C3.6526 2.54064 3.6526 3.55929 3.6526 4.57795C3.6526 10.3303 3.6526 16.0827 3.6526 21.8351C3.6526 22.0868 3.71389 22.3145 3.30941 22.3864C1.78953 22.65 0.808968 23.5489 0.257397 24.939C0.15934 25.2147 0.0857964 25.5023 0 25.7899ZM40.6689 11.1333C40.6689 11.361 40.6689 11.5407 40.6689 11.7205C40.6689 15.7951 40.6567 19.8697 40.6812 23.9443C40.6812 24.3638 40.5954 24.6394 40.2154 24.8671C39.9458 25.0349 39.7374 25.2866 39.529 25.5143C38.2053 26.9164 36.8815 28.3305 35.5455 29.7447C35.4352 29.8525 35.3249 29.9604 35.1533 30.1282C35.1533 29.8405 35.1533 29.6608 35.1533 29.481C35.1533 26.9763 33.5721 25.4184 31.0104 25.4184C29.6621 25.4184 28.3138 25.3465 26.9778 25.4304C25.127 25.5502 23.46 25.1667 21.8421 24.2919C20.3222 23.477 18.6675 23.0575 16.927 23.0216C14.8923 22.9736 13.0047 23.477 11.2152 24.4237C10.774 24.6514 10.3327 24.8551 9.86694 25.0828C9.57277 24.3039 9.20506 23.6088 8.54317 23.1773C7.90581 22.7699 7.18264 22.4823 6.45948 22.1227C6.45948 18.5395 6.45948 14.8244 6.45948 11.1213C10.2837 11.1213 14.0589 11.1213 17.8953 11.1213C17.8953 11.313 17.8953 11.4688 17.8953 11.6366C17.8953 13.0388 17.8953 14.4529 17.8953 15.855C17.8953 16.8737 18.4346 17.401 19.4765 17.401C22.2466 17.401 25.0167 17.401 27.7745 17.401C28.8164 17.401 29.3679 16.8617 29.3679 15.855C29.3679 14.4289 29.3679 13.0148 29.3679 11.5887C29.3679 11.4329 29.3679 11.2771 29.3679 11.1093C33.1554 11.1333 36.8815 11.1333 40.6689 11.1333ZM32.3832 31.2307C32.1135 31.2307 31.9174 31.2307 31.7213 31.2307C27.9093 31.2307 24.1097 31.2307 20.2977 31.2427C19.9668 31.2427 19.6113 31.2906 19.3171 31.4224C18.7411 31.6741 18.4837 32.3452 18.6307 32.9444C18.7901 33.5676 19.3539 33.9511 20.1384 33.9511C24.2567 33.9511 28.3629 33.9631 32.4812 33.9511C34.4546 33.9511 36.0971 33.2081 37.4208 31.77C38.8304 30.236 40.2767 28.726 41.7108 27.204C42.3114 26.5689 43.1326 26.5089 43.7455 27.0243C44.3583 27.5396 44.3951 28.2946 43.8313 28.9777C43.4145 29.481 42.9978 29.9724 42.5811 30.4637C40.7915 32.5729 39.0388 34.7061 37.2002 36.7674C35.5332 38.6489 33.4128 39.7874 30.851 40.0031C29.2821 40.1349 27.7132 40.2068 26.1321 40.2068C23.7052 40.1948 21.266 40.1589 18.8514 40.0271C15.9587 39.8593 13.1763 39.0204 10.3695 38.3972C10.0753 38.3373 10.0631 38.1695 10.0631 37.9538C10.0631 34.766 10.0631 31.5663 10.0753 28.3785C10.0753 28.2227 10.2224 27.983 10.3695 27.9111C11.2888 27.4317 12.208 26.9524 13.1396 26.5329C15.3826 25.5143 17.6502 25.4783 19.93 26.4251C20.7267 26.7606 21.5112 27.1441 22.3079 27.4916C23.2394 27.8871 24.1832 28.1628 25.225 28.1388C27.2107 28.1028 29.1963 28.1268 31.182 28.1268C31.8561 28.1268 32.3341 28.4863 32.3587 29.0736C32.4199 29.7686 32.3832 30.4637 32.3832 31.2307ZM6.44722 8.37692C6.44722 6.48343 6.44722 4.62588 6.44722 2.75636C10.2714 2.75636 14.0711 2.75636 17.8585 2.75636C17.8585 4.64985 17.8585 6.49541 17.8585 8.37692C14.0466 8.37692 10.2469 8.37692 6.44722 8.37692ZM7.2807 32.4051C7.2807 34.2986 7.2807 36.1802 7.2807 38.0737C7.2807 38.2534 7.2807 38.4332 7.26844 38.6129C7.20715 39.3919 6.71687 39.8233 5.92016 39.8353C5.29505 39.8353 4.66994 39.8353 4.04483 39.8353C3.46875 39.8233 3.03975 39.5357 2.88041 39.0084C2.80687 38.7567 2.78236 38.4811 2.78236 38.2175C2.7701 34.3705 2.78236 30.5117 2.78236 26.6647C2.78236 26.497 2.78235 26.3292 2.80687 26.1734C2.92944 25.4304 3.39521 25.0469 4.15514 25.0349C4.78025 25.0349 5.40537 25.0229 6.03048 25.0349C6.70462 25.0469 7.18264 25.4783 7.26844 26.1255C7.29295 26.3292 7.29295 26.5449 7.29295 26.7486C7.2807 28.6301 7.2807 30.5117 7.2807 32.4051ZM29.3802 2.74437C33.1676 2.74437 36.8938 2.74437 40.6322 2.74437C40.6322 4.63787 40.6322 6.50739 40.6322 8.37692C36.8693 8.37692 33.1309 8.37692 29.3802 8.37692C29.3802 6.48343 29.3802 4.62588 29.3802 2.74437ZM26.5856 2.73239C26.5856 4.63787 26.5856 6.48343 26.5856 8.36494C24.5999 8.36494 22.6388 8.36494 20.6654 8.36494C20.6654 6.47144 20.6654 4.6139 20.6654 2.73239C22.6511 2.73239 24.5999 2.73239 26.5856 2.73239ZM20.6777 14.7046C20.6777 13.4942 20.6777 12.3197 20.6777 11.1453C22.6633 11.1453 24.6122 11.1453 26.5733 11.1453C26.5733 12.3437 26.5733 13.5181 26.5733 14.7046C24.5999 14.7046 22.6511 14.7046 20.6777 14.7046Z" fill="#009BA7"/>
</svg>
